<?xml version="1.0" encoding="UTF-8"?>
<svg xmlns="http://www.w3.org/2000/svg" xmlns:xlink="http://www.w3.org/1999/xlink" width="2501" height="2501" viewBox="0 0 2501 2501">
<path fill-rule="nonzero" fill="rgb(59.959412%, 59.959412%, 59.959412%)" fill-opacity="1" d="M 913.613281 821 L 1127.988281 821 C 1153.320312 821 1176.308594 831.320312 1192.960938 847.960938 C 1209.601562 864.609375 1219.929688 887.601562 1219.929688 912.929688 L 1219.929688 1127.308594 C 1219.929688 1152.640625 1209.601562 1175.628906 1192.960938 1192.28125 C 1176.308594 1208.929688 1153.320312 1219.25 1127.988281 1219.25 L 913.613281 1219.25 C 888.277344 1219.25 865.289062 1208.929688 848.644531 1192.28125 C 831.996094 1175.628906 821.679688 1152.640625 821.679688 1127.308594 L 821.679688 912.929688 C 821.679688 887.601562 831.996094 864.609375 848.644531 847.960938 C 865.289062 831.320312 888.28125 821 913.613281 821 Z M 1127.988281 868.589844 L 913.613281 868.589844 C 901.417969 868.589844 890.335938 873.578125 882.296875 881.621094 C 874.257812 889.660156 869.273438 900.738281 869.273438 912.929688 L 869.273438 1127.308594 C 869.273438 1139.511719 874.257812 1150.589844 882.296875 1158.628906 C 890.335938 1166.660156 901.417969 1171.648438 913.613281 1171.648438 L 1127.988281 1171.648438 C 1140.191406 1171.648438 1151.269531 1166.660156 1159.308594 1158.628906 C 1167.339844 1150.589844 1172.328125 1139.511719 1172.328125 1127.308594 L 1172.328125 912.929688 C 1172.328125 900.738281 1167.339844 889.660156 1159.308594 881.621094 C 1151.269531 873.578125 1140.191406 868.589844 1127.988281 868.589844 "/>
<path fill-rule="nonzero" fill="rgb(59.959412%, 59.959412%, 59.959412%)" fill-opacity="1" d="M 1373.691406 821 L 1588.070312 821 C 1613.398438 821 1636.390625 831.320312 1653.03125 847.960938 C 1669.679688 864.609375 1680 887.601562 1680 912.929688 L 1680 1127.308594 C 1680 1152.640625 1669.679688 1175.628906 1653.03125 1192.28125 C 1636.390625 1208.929688 1613.398438 1219.25 1588.070312 1219.25 L 1373.691406 1219.25 C 1348.359375 1219.25 1325.371094 1208.929688 1308.71875 1192.28125 C 1292.070312 1175.628906 1281.75 1152.640625 1281.75 1127.308594 L 1281.75 912.929688 C 1281.75 887.601562 1292.070312 864.609375 1308.71875 847.960938 C 1325.371094 831.320312 1348.359375 821 1373.691406 821 Z M 1588.070312 868.589844 L 1373.691406 868.589844 C 1361.488281 868.589844 1350.410156 873.578125 1342.371094 881.621094 C 1334.339844 889.660156 1329.351562 900.738281 1329.351562 912.929688 L 1329.351562 1127.308594 C 1329.351562 1139.511719 1334.339844 1150.589844 1342.371094 1158.628906 C 1350.410156 1166.660156 1361.488281 1171.648438 1373.691406 1171.648438 L 1588.070312 1171.648438 C 1600.261719 1171.648438 1611.339844 1166.660156 1619.378906 1158.628906 C 1627.421875 1150.589844 1632.410156 1139.511719 1632.410156 1127.308594 L 1632.410156 912.929688 C 1632.410156 900.738281 1627.421875 889.660156 1619.378906 881.621094 C 1611.339844 873.578125 1600.261719 868.589844 1588.070312 868.589844 "/>
<path fill-rule="nonzero" fill="rgb(59.959412%, 59.959412%, 59.959412%)" fill-opacity="1" d="M 1373.691406 1281.070312 L 1588.070312 1281.070312 C 1613.398438 1281.070312 1636.390625 1291.398438 1653.03125 1308.039062 C 1669.679688 1324.691406 1680 1347.679688 1680 1373.011719 L 1680 1587.386719 C 1680 1612.722656 1669.679688 1635.710938 1653.03125 1652.355469 C 1636.390625 1669.003906 1613.398438 1679.324219 1588.070312 1679.324219 L 1373.691406 1679.324219 C 1348.359375 1679.324219 1325.371094 1669.003906 1308.71875 1652.355469 C 1292.070312 1635.710938 1281.75 1612.722656 1281.75 1587.386719 L 1281.75 1373.011719 C 1281.75 1347.679688 1292.070312 1324.691406 1308.71875 1308.039062 C 1325.371094 1291.398438 1348.359375 1281.070312 1373.691406 1281.070312 Z M 1588.070312 1328.671875 L 1373.691406 1328.671875 C 1361.488281 1328.671875 1350.410156 1333.660156 1342.371094 1341.691406 C 1334.339844 1349.730469 1329.351562 1360.820312 1329.351562 1373.011719 L 1329.351562 1587.386719 C 1329.351562 1599.582031 1334.339844 1610.664062 1342.371094 1618.703125 C 1350.410156 1626.742188 1361.488281 1631.726562 1373.691406 1631.726562 L 1588.070312 1631.726562 C 1600.261719 1631.726562 1611.339844 1626.742188 1619.378906 1618.703125 C 1627.421875 1610.664062 1632.410156 1599.582031 1632.410156 1587.386719 L 1632.410156 1373.011719 C 1632.410156 1360.820312 1627.421875 1349.730469 1619.378906 1341.691406 C 1611.339844 1333.660156 1600.261719 1328.671875 1588.070312 1328.671875 "/>
<path fill-rule="nonzero" fill="rgb(59.959412%, 59.959412%, 59.959412%)" fill-opacity="1" d="M 913.613281 1281.070312 L 1127.988281 1281.070312 C 1153.320312 1281.070312 1176.308594 1291.398438 1192.960938 1308.039062 C 1209.601562 1324.691406 1219.929688 1347.679688 1219.929688 1373.011719 L 1219.929688 1587.386719 C 1219.929688 1612.722656 1209.601562 1635.710938 1192.960938 1652.355469 C 1176.308594 1669.003906 1153.320312 1679.324219 1127.988281 1679.324219 L 913.613281 1679.324219 C 888.277344 1679.324219 865.289062 1669.003906 848.644531 1652.355469 C 831.996094 1635.710938 821.679688 1612.722656 821.679688 1587.386719 L 821.679688 1373.011719 C 821.679688 1347.679688 831.996094 1324.691406 848.644531 1308.039062 C 865.289062 1291.398438 888.28125 1281.070312 913.613281 1281.070312 Z M 1127.988281 1328.671875 L 913.613281 1328.671875 C 901.417969 1328.671875 890.335938 1333.660156 882.296875 1341.691406 C 874.257812 1349.730469 869.273438 1360.820312 869.273438 1373.011719 L 869.273438 1587.386719 C 869.273438 1599.582031 874.257812 1610.664062 882.296875 1618.703125 C 890.335938 1626.742188 901.417969 1631.726562 913.613281 1631.726562 L 1127.988281 1631.726562 C 1140.191406 1631.726562 1151.269531 1626.742188 1159.308594 1618.703125 C 1167.339844 1610.664062 1172.328125 1599.582031 1172.328125 1587.386719 L 1172.328125 1373.011719 C 1172.328125 1360.820312 1167.339844 1349.730469 1159.308594 1341.691406 C 1151.269531 1333.660156 1140.191406 1328.671875 1127.988281 1328.671875 "/>
</svg>
