<?xml version="1.0" encoding="UTF-8"?>
<svg xmlns="http://www.w3.org/2000/svg" xmlns:xlink="http://www.w3.org/1999/xlink" width="3003" height="3003" viewBox="0 0 3003 3003">
<path fill-rule="nonzero" fill="rgb(99.609375%, 99.609375%, 99.609375%)" fill-opacity="1" d="M 1.320312 0 C 0.96875 0 0.632812 0.140625 0.386719 0.390625 C 0.140625 0.628906 0 0.96875 0 1.320312 L 0 3001.320312 C 0 3002.046875 0.589844 3002.636719 1.320312 3002.636719 L 3001.320312 3002.640625 C 3001.671875 3002.640625 3002 3002.5 3002.25 3002.253906 C 3002.5 3002.003906 3002.640625 3001.671875 3002.640625 3001.320312 L 3002.640625 1.320312 C 3002.640625 0.589844 3002.050781 0 3001.320312 0 Z M 1.320312 0 "/>
<path fill-rule="nonzero" fill="rgb(0%, 0%, 0%)" fill-opacity="1" d="M 2003.570312 1306.410156 C 1996.808594 1306.410156 1990.039062 1303.820312 1984.851562 1298.660156 C 1974.511719 1288.320312 1974.511719 1271.570312 1984.851562 1261.21875 C 2012.710938 1233.371094 2028.03125 1196.371094 2028.03125 1156.980469 C 2028.03125 1117.609375 2012.710938 1080.589844 1984.851562 1052.75 C 1974.511719 1042.410156 1974.511719 1025.628906 1984.851562 1015.289062 C 1995.191406 1004.949219 2011.941406 1004.949219 2022.289062 1015.289062 C 2060.140625 1053.140625 2080.988281 1103.46875 2080.988281 1156.980469 C 2080.988281 1210.5 2060.140625 1260.828125 2022.289062 1298.660156 C 2017.128906 1303.820312 2010.351562 1306.410156 2003.570312 1306.410156 "/>
<path fill-rule="nonzero" fill="rgb(0%, 0%, 0%)" fill-opacity="1" d="M 2117.5 1367.890625 C 2110.75 1367.890625 2103.96875 1365.320312 2098.789062 1360.140625 C 2088.449219 1349.789062 2088.449219 1333.039062 2098.789062 1322.699219 C 2143.050781 1278.429688 2167.441406 1219.601562 2167.441406 1156.980469 C 2167.441406 1094.398438 2143.050781 1035.539062 2098.789062 991.269531 C 2088.449219 980.929688 2088.449219 964.179688 2098.789062 953.839844 C 2109.128906 943.5 2125.878906 943.5 2136.25 953.839844 C 2190.5 1008.101562 2220.378906 1080.238281 2220.378906 1156.980469 C 2220.378906 1233.730469 2190.5 1305.859375 2136.25 1360.140625 C 2131.070312 1365.320312 2124.28125 1367.890625 2117.5 1367.890625 "/>
<path fill-rule="nonzero" fill="rgb(0%, 0%, 0%)" fill-opacity="1" d="M 1060.410156 1306.410156 C 1053.628906 1306.410156 1046.851562 1303.820312 1041.691406 1298.660156 C 1003.839844 1260.828125 982.992188 1210.5 982.992188 1156.980469 C 982.992188 1103.46875 1003.839844 1053.140625 1041.691406 1015.289062 C 1052.039062 1004.949219 1068.789062 1004.949219 1079.128906 1015.289062 C 1089.46875 1025.628906 1089.46875 1042.410156 1079.128906 1052.75 C 1051.269531 1080.589844 1035.949219 1117.609375 1035.949219 1156.980469 C 1035.949219 1196.371094 1051.269531 1233.371094 1079.128906 1261.21875 C 1089.46875 1271.570312 1089.46875 1288.320312 1079.128906 1298.660156 C 1073.941406 1303.820312 1067.160156 1306.410156 1060.410156 1306.410156 "/>
<path fill-rule="nonzero" fill="rgb(0%, 0%, 0%)" fill-opacity="1" d="M 946.476562 1367.890625 C 939.699219 1367.890625 932.921875 1365.320312 927.734375 1360.140625 C 873.476562 1305.859375 843.601562 1233.730469 843.601562 1156.980469 C 843.601562 1080.238281 873.476562 1008.101562 927.734375 953.839844 C 938.101562 943.5 954.855469 943.5 965.195312 953.839844 C 975.542969 964.179688 975.542969 980.929688 965.195312 991.269531 C 920.933594 1035.539062 896.542969 1094.398438 896.542969 1156.980469 C 896.542969 1219.601562 920.933594 1278.429688 965.195312 1322.699219 C 975.542969 1333.039062 975.542969 1349.789062 965.195312 1360.140625 C 960.015625 1365.320312 953.230469 1367.890625 946.476562 1367.890625 "/>
<path fill-rule="nonzero" fill="rgb(0%, 0%, 0%)" fill-opacity="1" d="M 1528.339844 937.910156 C 1368.910156 937.910156 1262.859375 1037.449219 1237.949219 1230.210938 C 1237.941406 1230.261719 1237.941406 1230.320312 1237.949219 1230.371094 L 1237.941406 1230.371094 L 1182.871094 1766.820312 C 1182.851562 1766.988281 1182.910156 1767.148438 1183.011719 1767.269531 C 1183.121094 1767.390625 1183.269531 1767.449219 1183.421875 1767.460938 L 1183.410156 1767.460938 C 1183.421875 1767.460938 1183.429688 1767.460938 1183.441406 1767.460938 C 1183.449219 1767.460938 1183.460938 1767.460938 1183.46875 1767.460938 L 1873.230469 1767.460938 C 1873.390625 1767.460938 1873.539062 1767.398438 1873.640625 1767.289062 C 1873.75 1767.179688 1873.808594 1767.039062 1873.808594 1766.890625 L 1873.808594 1766.820312 L 1818.679688 1229.78125 L 1818.671875 1229.679688 C 1800.761719 1044.300781 1688 937.910156 1528.339844 937.910156 Z M 1528.339844 937.910156 "/>
<path fill-rule="nonzero" fill="rgb(0%, 0%, 0%)" fill-opacity="1" d="M 1142.199219 1800.359375 C 1090.390625 1800.359375 1048.378906 1842.371094 1048.378906 1894.191406 L 1048.378906 1958.101562 C 1048.378906 1958.25 1048.441406 1958.390625 1048.539062 1958.5 C 1048.648438 1958.609375 1048.800781 1958.671875 1048.949219 1958.671875 L 1394.351562 1958.671875 C 1394.378906 1958.671875 1394.390625 1958.671875 1394.429688 1958.671875 L 1394.449219 1958.671875 C 1394.460938 1958.671875 1394.46875 1958.671875 1394.488281 1958.671875 L 2007.730469 1958.671875 C 2008.050781 1958.671875 2008.308594 1958.410156 2008.308594 1958.089844 L 2008.308594 1894.191406 C 2008.308594 1842.371094 1966.289062 1800.359375 1914.480469 1800.359375 L 1914.480469 1800.371094 L 1892.101562 1800.359375 L 1164.601562 1800.359375 C 1164.589844 1800.359375 1164.589844 1800.359375 1164.570312 1800.359375 C 1164.570312 1800.359375 1164.558594 1800.359375 1164.550781 1800.359375 Z M 1142.199219 1800.359375 "/>
<path fill-rule="nonzero" fill="rgb(0%, 0%, 0%)" fill-opacity="1" d="M 1412.691406 1991.570312 C 1412.519531 1991.570312 1412.359375 1991.648438 1412.25 1991.769531 C 1412.140625 1991.898438 1412.089844 1992.070312 1412.121094 1992.230469 C 1420.410156 2048.949219 1469.308594 2092.523438 1528.339844 2092.523438 C 1587.421875 2092.523438 1636.28125 2048.953125 1644.558594 1992.230469 C 1644.589844 1992.070312 1644.539062 1991.898438 1644.429688 1991.769531 C 1644.320312 1991.648438 1644.160156 1991.570312 1644 1991.570312 Z M 1412.691406 1991.570312 "/>
</svg>
