<?xml version="1.0" encoding="UTF-8"?>
<svg xmlns="http://www.w3.org/2000/svg" xmlns:xlink="http://www.w3.org/1999/xlink" width="3003" height="3003" viewBox="0 0 3003 3003">
<path fill-rule="nonzero" fill="rgb(99.609375%, 99.609375%, 99.609375%)" fill-opacity="1" d="M 1.042969 0 C 0.765625 0 0.5 0.109375 0.304688 0.308594 C 0.109375 0.5 0 0.769531 0 1.039062 L 0 3001.042969 C 0 3001.617188 0.46875 3002.085938 1.042969 3002.085938 L 3001.039062 3002.085938 C 3001.320312 3002.085938 3001.589844 3001.976562 3001.78125 3001.78125 C 3001.980469 3001.585938 3002.089844 3001.320312 3002.089844 3001.042969 L 3002.089844 1.039062 C 3002.089844 0.46875 3001.621094 0 3001.039062 0 Z M 1.042969 0 "/>
<path fill-rule="nonzero" fill="rgb(0%, 0%, 0%)" fill-opacity="1" d="M 2030.359375 2304.859375 L 755.839844 2304.863281 C 754.097656 2304.859375 752.367188 2304.6875 750.664062 2304.347656 C 748.949219 2304.007812 747.292969 2303.507812 745.683594 2302.839844 C 744.070312 2302.171875 742.539062 2301.355469 741.085938 2300.382812 C 739.640625 2299.414062 738.296875 2298.3125 737.0625 2297.082031 C 735.832031 2295.847656 734.730469 2294.503906 733.765625 2293.058594 C 732.789062 2291.605469 731.972656 2290.082031 731.304688 2288.472656 C 730.636719 2286.855469 730.136719 2285.195312 729.796875 2283.484375 C 729.460938 2281.777344 729.285156 2280.046875 729.285156 2278.304688 L 729.285156 1003.78125 C 729.285156 1002.050781 729.460938 1000.320312 729.796875 998.609375 C 730.136719 996.890625 730.636719 995.230469 731.304688 993.621094 C 731.972656 992.019531 732.789062 990.480469 733.765625 989.03125 C 734.730469 987.578125 735.832031 986.238281 737.0625 985.019531 C 738.296875 983.78125 739.640625 982.679688 741.085938 981.710938 C 742.539062 980.738281 744.070312 979.921875 745.683594 979.261719 C 747.292969 978.589844 748.949219 978.089844 750.664062 977.75 C 752.367188 977.398438 754.097656 977.238281 755.839844 977.238281 L 2030.359375 977.238281 C 2032.109375 977.238281 2033.828125 977.398438 2035.539062 977.75 C 2037.25 978.089844 2038.910156 978.589844 2040.519531 979.261719 C 2042.128906 979.921875 2043.660156 980.738281 2045.109375 981.710938 C 2046.558594 982.679688 2047.910156 983.78125 2049.140625 985.019531 C 2050.359375 986.238281 2051.46875 987.578125 2052.441406 989.03125 C 2053.410156 990.480469 2054.21875 992.019531 2054.890625 993.621094 C 2055.558594 995.230469 2056.058594 996.890625 2056.410156 998.609375 C 2056.738281 1000.320312 2056.910156 1002.050781 2056.910156 1003.78125 L 2056.910156 2278.304688 C 2056.910156 2280.046875 2056.738281 2281.777344 2056.410156 2283.484375 C 2056.058594 2285.195312 2055.558594 2286.855469 2054.890625 2288.472656 C 2054.21875 2290.082031 2053.410156 2291.605469 2052.441406 2293.058594 C 2051.46875 2294.503906 2050.359375 2295.847656 2049.140625 2297.082031 C 2047.910156 2298.3125 2046.558594 2299.414062 2045.109375 2300.382812 C 2043.660156 2301.355469 2042.128906 2302.171875 2040.519531 2302.839844 C 2038.910156 2303.507812 2037.25 2304.007812 2035.539062 2304.347656 C 2033.828125 2304.6875 2032.109375 2304.859375 2030.359375 2304.859375 Z M 782.394531 2251.753906 L 2003.804688 2251.753906 L 2003.804688 1030.335938 L 782.394531 1030.335938 Z M 782.394531 2251.753906 "/>
<path fill-rule="nonzero" fill="rgb(0%, 0%, 0%)" fill-opacity="1" d="M 2189.679688 2145.546875 L 2030.359375 2145.546875 C 2028.621094 2145.546875 2026.890625 2145.375 2025.179688 2145.035156 C 2023.46875 2144.691406 2021.808594 2144.1875 2020.191406 2143.519531 C 2018.589844 2142.851562 2017.058594 2142.035156 2015.609375 2141.070312 C 2014.160156 2140.105469 2012.820312 2139.003906 2011.589844 2137.769531 C 2010.351562 2136.535156 2009.25 2135.191406 2008.28125 2133.746094 C 2007.308594 2132.292969 2006.5 2130.761719 2005.828125 2129.152344 C 2005.160156 2127.539062 2004.660156 2125.882812 2004.320312 2124.171875 C 2003.96875 2122.464844 2003.808594 2120.738281 2003.808594 2118.992188 C 2003.808594 2117.246094 2003.96875 2115.523438 2004.320312 2113.808594 C 2004.660156 2112.105469 2005.160156 2110.4375 2005.828125 2108.828125 C 2006.5 2107.21875 2007.308594 2105.691406 2008.28125 2104.238281 C 2009.25 2102.785156 2010.351562 2101.449219 2011.589844 2100.21875 C 2012.820312 2098.984375 2014.160156 2097.882812 2015.609375 2096.910156 C 2017.058594 2095.941406 2018.589844 2095.125 2020.191406 2094.460938 C 2021.808594 2093.789062 2023.46875 2093.289062 2025.179688 2092.949219 C 2026.890625 2092.613281 2028.621094 2092.441406 2030.359375 2092.441406 L 2163.121094 2092.441406 L 2163.121094 871.019531 L 941.707031 871.03125 L 941.707031 1003.78125 C 941.707031 1005.53125 941.539062 1007.25 941.195312 1008.96875 C 940.855469 1010.679688 940.355469 1012.339844 939.6875 1013.949219 C 939.019531 1015.558594 938.203125 1017.089844 937.238281 1018.53125 C 936.261719 1019.988281 935.160156 1021.320312 933.929688 1022.558594 C 932.695312 1023.789062 931.359375 1024.890625 929.90625 1025.871094 C 928.460938 1026.828125 926.929688 1027.648438 925.320312 1028.320312 C 923.707031 1028.980469 922.042969 1029.488281 920.335938 1029.820312 C 918.625 1030.171875 916.898438 1030.339844 915.152344 1030.339844 C 913.410156 1030.339844 911.6875 1030.171875 909.976562 1029.820312 C 908.261719 1029.488281 906.605469 1028.980469 904.996094 1028.320312 C 903.382812 1027.648438 901.851562 1026.828125 900.40625 1025.871094 C 898.953125 1024.890625 897.609375 1023.789062 896.375 1022.558594 C 895.144531 1021.320312 894.042969 1019.988281 893.078125 1018.53125 C 892.109375 1017.089844 891.292969 1015.558594 890.625 1013.949219 C 889.957031 1012.339844 889.453125 1010.679688 889.109375 1008.96875 C 888.769531 1007.25 888.597656 1005.53125 888.597656 1003.78125 L 888.597656 844.46875 C 888.597656 842.730469 888.769531 841 889.109375 839.289062 C 889.453125 837.578125 889.957031 835.921875 890.625 834.308594 C 891.292969 832.699219 892.109375 831.171875 893.078125 829.71875 C 894.042969 828.269531 895.144531 826.929688 896.375 825.691406 C 897.609375 824.460938 898.953125 823.359375 900.40625 822.390625 C 901.851562 821.429688 903.382812 820.609375 904.996094 819.941406 C 906.605469 819.28125 908.261719 818.769531 909.976562 818.429688 C 911.6875 818.089844 913.410156 817.910156 915.152344 817.910156 L 2189.679688 817.921875 C 2191.421875 817.910156 2193.148438 818.089844 2194.851562 818.429688 C 2196.558594 818.769531 2198.21875 819.28125 2199.828125 819.941406 C 2201.449219 820.609375 2202.980469 821.429688 2204.429688 822.390625 C 2205.878906 823.359375 2207.21875 824.460938 2208.449219 825.691406 C 2209.679688 826.929688 2210.789062 828.269531 2211.75 829.71875 C 2212.71875 831.171875 2213.539062 832.699219 2214.210938 834.308594 C 2214.871094 835.921875 2215.378906 837.578125 2215.71875 839.289062 C 2216.058594 841 2216.230469 842.730469 2216.230469 844.46875 L 2216.230469 2118.992188 C 2216.230469 2120.738281 2216.058594 2122.464844 2215.71875 2124.171875 C 2215.378906 2125.882812 2214.871094 2127.539062 2214.210938 2129.152344 C 2213.539062 2130.761719 2212.71875 2132.292969 2211.75 2133.746094 C 2210.789062 2135.191406 2209.679688 2136.535156 2208.449219 2137.769531 C 2207.21875 2139.003906 2205.878906 2140.105469 2204.429688 2141.070312 C 2202.980469 2142.035156 2201.449219 2142.851562 2199.828125 2143.519531 C 2198.21875 2144.1875 2196.558594 2144.691406 2194.851562 2145.035156 C 2193.148438 2145.375 2191.421875 2145.546875 2189.679688 2145.546875 Z M 2189.679688 2145.546875 "/>
<path fill-rule="nonzero" fill="rgb(0%, 0%, 0%)" fill-opacity="1" d="M 915.152344 2304.859375 C 912.527344 2304.859375 909.960938 2304.472656 907.445312 2303.710938 C 904.941406 2302.949219 902.589844 2301.84375 900.40625 2300.382812 C 898.222656 2298.917969 896.296875 2297.175781 894.632812 2295.148438 C 892.964844 2293.121094 891.632812 2290.890625 890.625 2288.464844 C 889.621094 2286.042969 888.992188 2283.523438 888.730469 2280.90625 C 888.480469 2278.296875 888.605469 2275.703125 889.117188 2273.128906 C 889.628906 2270.550781 890.507812 2268.109375 891.742188 2265.792969 C 892.984375 2263.472656 894.523438 2261.390625 896.382812 2259.539062 L 1639.859375 1516.070312 C 1641.078125 1514.828125 1642.429688 1513.730469 1643.878906 1512.761719 C 1645.320312 1511.789062 1646.859375 1510.980469 1648.46875 1510.308594 C 1650.070312 1509.640625 1651.730469 1509.140625 1653.441406 1508.789062 C 1655.148438 1508.449219 1656.878906 1508.28125 1658.621094 1508.28125 C 1660.371094 1508.28125 1662.089844 1508.449219 1663.808594 1508.789062 C 1665.511719 1509.140625 1667.179688 1509.640625 1668.789062 1510.308594 C 1670.398438 1510.980469 1671.921875 1511.789062 1673.378906 1512.761719 C 1674.820312 1513.730469 1676.160156 1514.828125 1677.398438 1516.070312 L 2049.128906 1887.800781 C 2050.328125 1889.039062 2051.390625 1890.378906 2052.339844 1891.828125 C 2053.269531 1893.28125 2054.058594 1894.808594 2054.691406 1896.410156 C 2055.339844 1898 2055.820312 1899.648438 2056.128906 1901.351562 C 2056.449219 1903.050781 2056.601562 1904.75 2056.589844 1906.480469 C 2056.570312 1908.199219 2056.390625 1909.898438 2056.039062 1911.589844 C 2055.699219 1913.28125 2055.191406 1914.929688 2054.519531 1916.511719 C 2053.851562 1918.109375 2053.039062 1919.609375 2052.078125 1921.039062 C 2051.121094 1922.46875 2050.03125 1923.800781 2048.808594 1925.019531 C 2047.589844 1926.238281 2046.261719 1927.328125 2044.828125 1928.300781 C 2043.398438 1929.25 2041.890625 1930.058594 2040.300781 1930.730469 C 2038.71875 1931.398438 2037.070312 1931.910156 2035.378906 1932.25 C 2033.691406 1932.601562 2031.988281 1932.78125 2030.261719 1932.800781 C 2028.539062 1932.808594 2026.828125 1932.660156 2025.140625 1932.339844 C 2023.441406 1932.03125 2021.789062 1931.550781 2020.191406 1930.898438 C 2018.589844 1930.269531 2017.070312 1929.480469 2015.621094 1928.550781 C 2014.171875 1927.609375 2012.828125 1926.539062 2011.589844 1925.339844 L 1658.621094 1572.390625 L 933.929688 2297.082031 C 931.4375 2299.574219 928.570312 2301.496094 925.320312 2302.839844 C 922.066406 2304.191406 918.679688 2304.867188 915.152344 2304.859375 Z M 915.152344 2304.859375 "/>
<path fill-rule="nonzero" fill="rgb(0%, 0%, 0%)" fill-opacity="1" d="M 755.839844 1986.230469 C 753.214844 1986.230469 750.648438 1985.851562 748.132812 1985.089844 C 745.617188 1984.320312 743.269531 1983.210938 741.09375 1981.75 C 738.910156 1980.289062 736.984375 1978.550781 735.320312 1976.519531 C 733.65625 1974.488281 732.320312 1972.269531 731.3125 1969.839844 C 730.308594 1967.410156 729.679688 1964.890625 729.417969 1962.28125 C 729.160156 1959.660156 729.292969 1957.070312 729.804688 1954.5 C 730.316406 1951.921875 731.1875 1949.480469 732.429688 1947.160156 C 733.664062 1944.851562 735.210938 1942.761719 737.0625 1940.898438 L 1108.808594 1569.160156 C 1110.039062 1567.929688 1111.371094 1566.828125 1112.820312 1565.871094 C 1114.269531 1564.898438 1115.808594 1564.070312 1117.410156 1563.410156 C 1119.019531 1562.738281 1120.679688 1562.230469 1122.390625 1561.898438 C 1124.109375 1561.558594 1125.828125 1561.390625 1127.570312 1561.390625 C 1129.320312 1561.390625 1131.039062 1561.558594 1132.761719 1561.898438 C 1134.460938 1562.230469 1136.128906 1562.738281 1137.738281 1563.410156 C 1139.351562 1564.070312 1140.878906 1564.898438 1142.320312 1565.871094 C 1143.769531 1566.828125 1145.109375 1567.929688 1146.351562 1569.160156 L 1385.320312 1808.140625 C 1386.519531 1809.378906 1387.578125 1810.71875 1388.519531 1812.179688 C 1389.460938 1813.621094 1390.25 1815.140625 1390.878906 1816.75 C 1391.519531 1818.351562 1392 1819.988281 1392.320312 1821.691406 C 1392.628906 1823.390625 1392.789062 1825.089844 1392.78125 1826.820312 C 1392.761719 1828.539062 1392.578125 1830.25 1392.230469 1831.929688 C 1391.878906 1833.621094 1391.378906 1835.269531 1390.710938 1836.859375 C 1390.039062 1838.441406 1389.21875 1839.949219 1388.269531 1841.378906 C 1387.308594 1842.820312 1386.210938 1844.140625 1385 1845.359375 C 1383.78125 1846.589844 1382.449219 1847.671875 1381.019531 1848.640625 C 1379.589844 1849.589844 1378.078125 1850.410156 1376.488281 1851.078125 C 1374.898438 1851.738281 1373.261719 1852.25 1371.570312 1852.589844 C 1369.878906 1852.941406 1368.179688 1853.121094 1366.449219 1853.140625 C 1364.730469 1853.148438 1363.019531 1853 1361.328125 1852.679688 C 1359.628906 1852.371094 1357.980469 1851.890625 1356.378906 1851.25 C 1354.78125 1850.609375 1353.25 1849.820312 1351.808594 1848.890625 C 1350.359375 1847.949219 1349.019531 1846.890625 1347.78125 1845.691406 L 1127.570312 1625.488281 L 774.617188 1978.449219 C 772.125 1980.941406 769.257812 1982.859375 766.007812 1984.210938 C 762.746094 1985.558594 759.359375 1986.230469 755.839844 1986.230469 Z M 755.839844 1986.230469 "/>
<path fill-rule="nonzero" fill="rgb(0%, 0%, 0%)" fill-opacity="1" d="M 1340 1508.28125 C 1337.820312 1508.28125 1335.648438 1508.230469 1333.480469 1508.121094 C 1331.308594 1508.019531 1329.140625 1507.859375 1326.980469 1507.640625 C 1324.820312 1507.429688 1322.660156 1507.160156 1320.519531 1506.839844 C 1318.359375 1506.53125 1316.230469 1506.160156 1314.101562 1505.730469 C 1311.960938 1505.308594 1309.851562 1504.828125 1307.730469 1504.308594 C 1305.628906 1503.78125 1303.539062 1503.199219 1301.460938 1502.570312 C 1299.378906 1501.929688 1297.320312 1501.261719 1295.269531 1500.519531 C 1293.21875 1499.789062 1291.191406 1499.011719 1289.179688 1498.179688 C 1287.179688 1497.351562 1285.191406 1496.460938 1283.230469 1495.539062 C 1281.269531 1494.609375 1279.320312 1493.628906 1277.410156 1492.609375 C 1275.488281 1491.589844 1273.609375 1490.511719 1271.738281 1489.390625 C 1269.878906 1488.28125 1268.050781 1487.121094 1266.238281 1485.910156 C 1264.429688 1484.699219 1262.660156 1483.449219 1260.910156 1482.160156 C 1259.160156 1480.859375 1257.449219 1479.53125 1255.769531 1478.140625 C 1254.089844 1476.769531 1252.441406 1475.351562 1250.839844 1473.890625 C 1249.230469 1472.429688 1247.648438 1470.929688 1246.121094 1469.398438 C 1244.578125 1467.859375 1243.089844 1466.289062 1241.628906 1464.679688 C 1240.160156 1463.070312 1238.75 1461.429688 1237.371094 1459.75 C 1235.988281 1458.058594 1234.660156 1456.351562 1233.359375 1454.609375 C 1232.070312 1452.859375 1230.820312 1451.089844 1229.609375 1449.28125 C 1228.390625 1447.480469 1227.238281 1445.640625 1226.121094 1443.769531 C 1225 1441.910156 1223.929688 1440.019531 1222.910156 1438.101562 C 1221.878906 1436.191406 1220.910156 1434.25 1219.980469 1432.28125 C 1219.050781 1430.320312 1218.171875 1428.339844 1217.339844 1426.328125 C 1216.511719 1424.320312 1215.71875 1422.300781 1214.988281 1420.25 C 1214.261719 1418.199219 1213.578125 1416.140625 1212.949219 1414.058594 C 1212.320312 1411.980469 1211.738281 1409.878906 1211.210938 1407.78125 C 1210.679688 1405.671875 1210.210938 1403.550781 1209.789062 1401.429688 C 1209.359375 1399.300781 1208.988281 1397.148438 1208.671875 1395.011719 C 1208.351562 1392.851562 1208.089844 1390.699219 1207.871094 1388.53125 C 1207.660156 1386.371094 1207.5 1384.199219 1207.390625 1382.039062 C 1207.289062 1379.871094 1207.230469 1377.691406 1207.230469 1375.519531 C 1207.230469 1373.339844 1207.289062 1371.179688 1207.390625 1369.011719 C 1207.5 1366.828125 1207.660156 1364.671875 1207.871094 1362.5 C 1208.089844 1360.339844 1208.351562 1358.191406 1208.671875 1356.039062 C 1208.988281 1353.890625 1209.359375 1351.75 1209.789062 1349.621094 C 1210.210938 1347.488281 1210.679688 1345.371094 1211.210938 1343.269531 C 1211.738281 1341.148438 1212.320312 1339.058594 1212.949219 1336.980469 C 1213.578125 1334.910156 1214.261719 1332.839844 1214.988281 1330.800781 C 1215.71875 1328.75 1216.511719 1326.71875 1217.339844 1324.71875 C 1218.171875 1322.710938 1219.050781 1320.71875 1219.980469 1318.75 C 1220.910156 1316.789062 1221.878906 1314.851562 1222.910156 1312.941406 C 1223.929688 1311.019531 1225 1309.128906 1226.121094 1307.269531 C 1227.238281 1305.410156 1228.390625 1303.570312 1229.609375 1301.761719 C 1230.820312 1299.960938 1232.070312 1298.179688 1233.359375 1296.441406 C 1234.660156 1294.691406 1235.988281 1292.980469 1237.371094 1291.300781 C 1238.75 1289.621094 1240.160156 1287.96875 1241.628906 1286.359375 C 1243.089844 1284.75 1244.578125 1283.179688 1246.121094 1281.640625 C 1247.648438 1280.109375 1249.230469 1278.609375 1250.839844 1277.148438 C 1252.441406 1275.691406 1254.089844 1274.269531 1255.769531 1272.890625 C 1257.449219 1271.519531 1259.160156 1270.179688 1260.910156 1268.878906 C 1262.660156 1267.589844 1264.429688 1266.339844 1266.238281 1265.140625 C 1268.050781 1263.929688 1269.878906 1262.769531 1271.738281 1261.648438 C 1273.609375 1260.539062 1275.488281 1259.460938 1277.410156 1258.441406 C 1279.320312 1257.410156 1281.269531 1256.429688 1283.230469 1255.5 C 1285.191406 1254.578125 1287.179688 1253.699219 1289.179688 1252.871094 C 1291.191406 1252.03125 1293.21875 1251.261719 1295.269531 1250.519531 C 1297.320312 1249.789062 1299.378906 1249.101562 1301.460938 1248.480469 C 1303.539062 1247.839844 1305.628906 1247.261719 1307.730469 1246.738281 C 1309.851562 1246.210938 1311.960938 1245.730469 1314.101562 1245.308594 C 1316.230469 1244.878906 1318.359375 1244.519531 1320.519531 1244.191406 C 1322.660156 1243.878906 1324.820312 1243.609375 1326.980469 1243.398438 C 1329.140625 1243.191406 1331.308594 1243.019531 1333.480469 1242.921875 C 1335.648438 1242.808594 1337.820312 1242.75 1340 1242.75 C 1342.171875 1242.75 1344.339844 1242.808594 1346.511719 1242.921875 C 1348.679688 1243.019531 1350.851562 1243.191406 1353.011719 1243.398438 C 1355.171875 1243.609375 1357.328125 1243.878906 1359.46875 1244.191406 C 1361.628906 1244.519531 1363.761719 1244.878906 1365.890625 1245.308594 C 1368.03125 1245.730469 1370.140625 1246.210938 1372.261719 1246.738281 C 1374.359375 1247.261719 1376.449219 1247.839844 1378.53125 1248.480469 C 1380.609375 1249.101562 1382.671875 1249.789062 1384.71875 1250.519531 C 1386.769531 1251.261719 1388.789062 1252.03125 1390.808594 1252.871094 C 1392.808594 1253.699219 1394.789062 1254.578125 1396.761719 1255.5 C 1398.71875 1256.429688 1400.660156 1257.410156 1402.578125 1258.441406 C 1404.5 1259.460938 1406.378906 1260.539062 1408.25 1261.648438 C 1410.109375 1262.769531 1411.941406 1263.929688 1413.75 1265.140625 C 1415.558594 1266.339844 1417.328125 1267.589844 1419.078125 1268.878906 C 1420.828125 1270.179688 1422.539062 1271.519531 1424.210938 1272.890625 C 1425.890625 1274.269531 1427.550781 1275.691406 1429.148438 1277.148438 C 1430.761719 1278.609375 1432.339844 1280.109375 1433.871094 1281.640625 C 1435.410156 1283.179688 1436.898438 1284.75 1438.359375 1286.359375 C 1439.820312 1287.96875 1441.238281 1289.621094 1442.621094 1291.300781 C 1444 1292.980469 1445.339844 1294.691406 1446.628906 1296.441406 C 1447.929688 1298.179688 1449.171875 1299.960938 1450.378906 1301.761719 C 1451.589844 1303.570312 1452.75 1305.410156 1453.871094 1307.269531 C 1454.980469 1309.128906 1456.058594 1311.019531 1457.078125 1312.941406 C 1458.109375 1314.851562 1459.078125 1316.789062 1460.011719 1318.75 C 1460.941406 1320.71875 1461.820312 1322.710938 1462.648438 1324.71875 C 1463.480469 1326.71875 1464.269531 1328.75 1465 1330.800781 C 1465.730469 1332.839844 1466.410156 1334.910156 1467.039062 1336.980469 C 1467.679688 1339.058594 1468.25 1341.148438 1468.769531 1343.269531 C 1469.308594 1345.371094 1469.78125 1347.488281 1470.199219 1349.621094 C 1470.628906 1351.75 1471 1353.890625 1471.320312 1356.039062 C 1471.640625 1358.191406 1471.898438 1360.339844 1472.121094 1362.5 C 1472.328125 1364.671875 1472.488281 1366.828125 1472.601562 1369.011719 C 1472.699219 1371.179688 1472.761719 1373.339844 1472.761719 1375.519531 C 1472.761719 1377.691406 1472.699219 1379.871094 1472.589844 1382.039062 C 1472.480469 1384.199219 1472.320312 1386.371094 1472.109375 1388.53125 C 1471.890625 1390.691406 1471.621094 1392.839844 1471.300781 1395 C 1470.980469 1397.140625 1470.609375 1399.28125 1470.179688 1401.410156 C 1469.761719 1403.539062 1469.28125 1405.660156 1468.75 1407.769531 C 1468.210938 1409.871094 1467.640625 1411.96875 1467.011719 1414.039062 C 1466.371094 1416.121094 1465.691406 1418.179688 1464.960938 1420.230469 C 1464.230469 1422.269531 1463.441406 1424.300781 1462.609375 1426.300781 C 1461.769531 1428.308594 1460.890625 1430.289062 1459.96875 1432.261719 C 1459.039062 1434.21875 1458.058594 1436.160156 1457.039062 1438.070312 C 1456.011719 1439.988281 1454.941406 1441.878906 1453.820312 1443.738281 C 1452.699219 1445.609375 1451.539062 1447.441406 1450.339844 1449.238281 C 1449.128906 1451.050781 1447.878906 1452.820312 1446.578125 1454.570312 C 1445.289062 1456.308594 1443.949219 1458.019531 1442.570312 1459.699219 C 1441.191406 1461.378906 1439.78125 1463.019531 1438.320312 1464.628906 C 1436.859375 1466.238281 1435.359375 1467.820312 1433.820312 1469.359375 C 1432.289062 1470.890625 1430.71875 1472.390625 1429.109375 1473.851562 C 1427.5 1475.300781 1425.859375 1476.71875 1424.179688 1478.101562 C 1422.5 1479.480469 1420.78125 1480.820312 1419.039062 1482.109375 C 1417.289062 1483.398438 1415.519531 1484.660156 1413.71875 1485.859375 C 1411.910156 1487.070312 1410.070312 1488.230469 1408.210938 1489.351562 C 1406.351562 1490.460938 1404.460938 1491.539062 1402.550781 1492.558594 C 1400.628906 1493.578125 1398.691406 1494.558594 1396.730469 1495.488281 C 1394.769531 1496.429688 1392.78125 1497.308594 1390.78125 1498.140625 C 1388.769531 1498.96875 1386.738281 1499.75 1384.699219 1500.488281 C 1382.660156 1501.21875 1380.589844 1501.898438 1378.519531 1502.53125 C 1376.429688 1503.171875 1374.339844 1503.75 1372.238281 1504.269531 C 1370.128906 1504.800781 1368.011719 1505.28125 1365.878906 1505.699219 C 1363.75 1506.140625 1361.621094 1506.5 1359.460938 1506.828125 C 1357.320312 1507.148438 1355.160156 1507.421875 1353 1507.628906 C 1350.839844 1507.851562 1348.679688 1508 1346.5 1508.121094 C 1344.339844 1508.230469 1342.171875 1508.28125 1340 1508.28125 Z M 1340 1295.859375 C 1337.378906 1295.859375 1334.78125 1296 1332.191406 1296.25 C 1329.589844 1296.5 1327.011719 1296.878906 1324.449219 1297.390625 C 1321.898438 1297.910156 1319.371094 1298.53125 1316.871094 1299.300781 C 1314.371094 1300.050781 1311.921875 1300.929688 1309.511719 1301.929688 C 1307.101562 1302.921875 1304.75 1304.039062 1302.441406 1305.269531 C 1300.140625 1306.5 1297.910156 1307.839844 1295.738281 1309.289062 C 1293.570312 1310.738281 1291.480469 1312.289062 1289.460938 1313.941406 C 1287.441406 1315.609375 1285.519531 1317.351562 1283.671875 1319.191406 C 1281.820312 1321.039062 1280.070312 1322.96875 1278.410156 1324.980469 C 1276.769531 1327 1275.210938 1329.101562 1273.769531 1331.269531 C 1272.308594 1333.441406 1270.980469 1335.671875 1269.738281 1337.96875 C 1268.519531 1340.269531 1267.398438 1342.628906 1266.398438 1345.039062 C 1265.410156 1347.441406 1264.53125 1349.898438 1263.761719 1352.398438 C 1263.011719 1354.890625 1262.371094 1357.421875 1261.871094 1359.980469 C 1261.359375 1362.539062 1260.96875 1365.121094 1260.71875 1367.710938 C 1260.460938 1370.308594 1260.339844 1372.910156 1260.339844 1375.519531 C 1260.339844 1378.128906 1260.460938 1380.730469 1260.71875 1383.328125 C 1260.96875 1385.921875 1261.359375 1388.5 1261.871094 1391.058594 C 1262.371094 1393.621094 1263.011719 1396.148438 1263.761719 1398.640625 C 1264.53125 1401.140625 1265.410156 1403.589844 1266.398438 1406 C 1267.398438 1408.410156 1268.519531 1410.769531 1269.738281 1413.070312 C 1270.980469 1415.371094 1272.308594 1417.609375 1273.769531 1419.78125 C 1275.210938 1421.941406 1276.769531 1424.039062 1278.410156 1426.050781 C 1280.070312 1428.070312 1281.820312 1430 1283.671875 1431.851562 C 1285.519531 1433.691406 1287.441406 1435.441406 1289.460938 1437.101562 C 1291.480469 1438.75 1293.570312 1440.300781 1295.738281 1441.761719 C 1297.910156 1443.199219 1300.140625 1444.539062 1302.441406 1445.769531 C 1304.75 1447 1307.101562 1448.121094 1309.511719 1449.121094 C 1311.921875 1450.109375 1314.371094 1451 1316.871094 1451.75 C 1319.371094 1452.5 1321.898438 1453.140625 1324.449219 1453.648438 C 1327.011719 1454.160156 1329.589844 1454.539062 1332.191406 1454.800781 C 1334.78125 1455.050781 1337.378906 1455.179688 1340 1455.179688 C 1342.609375 1455.179688 1345.210938 1455.050781 1347.800781 1454.800781 C 1350.398438 1454.539062 1352.980469 1454.160156 1355.539062 1453.648438 C 1358.089844 1453.140625 1360.621094 1452.5 1363.121094 1451.75 C 1365.621094 1451 1368.070312 1450.109375 1370.480469 1449.121094 C 1372.890625 1448.121094 1375.238281 1447 1377.539062 1445.769531 C 1379.839844 1444.539062 1382.078125 1443.199219 1384.25 1441.761719 C 1386.421875 1440.300781 1388.511719 1438.75 1390.53125 1437.101562 C 1392.550781 1435.441406 1394.480469 1433.691406 1396.320312 1431.851562 C 1398.160156 1430 1399.921875 1428.070312 1401.570312 1426.050781 C 1403.21875 1424.039062 1404.78125 1421.941406 1406.21875 1419.78125 C 1407.679688 1417.609375 1409.011719 1415.371094 1410.25 1413.070312 C 1411.46875 1410.769531 1412.589844 1408.410156 1413.589844 1406 C 1414.578125 1403.589844 1415.460938 1401.140625 1416.230469 1398.640625 C 1416.980469 1396.148438 1417.621094 1393.621094 1418.121094 1391.058594 C 1418.628906 1388.5 1419.019531 1385.921875 1419.269531 1383.328125 C 1419.519531 1380.730469 1419.648438 1378.128906 1419.648438 1375.519531 C 1419.648438 1372.910156 1419.519531 1370.308594 1419.261719 1367.710938 C 1419 1365.121094 1418.621094 1362.539062 1418.109375 1359.988281 C 1417.589844 1357.429688 1416.960938 1354.898438 1416.199219 1352.410156 C 1415.441406 1349.910156 1414.570312 1347.460938 1413.558594 1345.050781 C 1412.570312 1342.640625 1411.449219 1340.289062 1410.21875 1337.980469 C 1408.988281 1335.691406 1407.640625 1333.449219 1406.199219 1331.289062 C 1404.75 1329.121094 1403.199219 1327.03125 1401.539062 1325.011719 C 1399.890625 1323 1398.140625 1321.058594 1396.300781 1319.21875 C 1394.449219 1317.378906 1392.519531 1315.628906 1390.5 1313.96875 C 1388.480469 1312.320312 1386.398438 1310.769531 1384.230469 1309.320312 C 1382.058594 1307.871094 1379.828125 1306.519531 1377.53125 1305.300781 C 1375.21875 1304.058594 1372.878906 1302.941406 1370.460938 1301.949219 C 1368.050781 1300.949219 1365.601562 1300.070312 1363.109375 1299.308594 C 1360.609375 1298.558594 1358.078125 1297.921875 1355.53125 1297.410156 C 1352.96875 1296.898438 1350.390625 1296.519531 1347.800781 1296.25 C 1345.210938 1296 1342.601562 1295.871094 1340 1295.859375 Z M 1340 1295.859375 "/>
<path fill-rule="nonzero" fill="rgb(0%, 0%, 0%)" fill-opacity="1" d="M 1884.171875 2196.414062 L 1540.691406 2196.414062 C 1527.449219 2196.414062 1516.730469 2185.6875 1516.730469 2172.453125 C 1516.730469 2159.21875 1527.449219 2148.488281 1540.691406 2148.488281 L 1884.171875 2148.488281 C 1897.398438 2148.488281 1908.128906 2159.21875 1908.128906 2172.453125 C 1908.128906 2185.6875 1897.398438 2196.414062 1884.171875 2196.414062 Z M 1884.171875 2196.414062 "/>
</svg>
