<?xml version="1.0" encoding="UTF-8"?>
<svg xmlns="http://www.w3.org/2000/svg" xmlns:xlink="http://www.w3.org/1999/xlink" width="3001" height="3001" viewBox="0 0 3001 3001">
<path fill-rule="evenodd" fill="rgb(100%, 100%, 100%)" fill-opacity="1" d="M 0.582031 0.789062 L 3000.578125 0.789062 L 3000.578125 3000.789062 L 0.582031 3000.789062 L 0.582031 0.789062 "/>
<path fill-rule="nonzero" fill="rgb(0%, 0%, 0%)" fill-opacity="1" d="M 1531.851562 918.660156 C 1522.699219 868.550781 1512.511719 812.820312 1500.570312 750.789062 C 1488.601562 812.980469 1478.441406 868.578125 1469.320312 918.550781 C 1427.441406 1147.851562 1406.480469 1262.53125 1334.398438 1334.609375 C 1262.441406 1406.570312 1148.03125 1427.578125 919.492188 1469.320312 L 918.457031 1469.519531 C 868.34375 1478.671875 812.609375 1488.859375 750.582031 1500.800781 C 812.773438 1512.78125 868.367188 1522.941406 918.34375 1532.058594 C 1147.640625 1573.929688 1262.320312 1594.890625 1334.398438 1666.96875 C 1406.371094 1738.929688 1427.371094 1853.339844 1469.109375 2081.882812 L 1469.320312 2082.914062 C 1478.46875 2133.027344 1488.648438 2188.761719 1500.589844 2250.789062 C 1512.570312 2188.597656 1522.730469 2133.003906 1531.851562 2083.027344 C 1573.730469 1853.730469 1594.679688 1739.050781 1666.761719 1666.96875 C 1738.71875 1595.011719 1853.128906 1574 2081.671875 1532.261719 L 2082.710938 1532.058594 C 2132.820312 1522.910156 2188.558594 1512.71875 2250.578125 1500.78125 C 2188.390625 1488.800781 2132.800781 1478.640625 2082.820312 1469.519531 C 1853.519531 1427.648438 1738.839844 1406.691406 1666.761719 1334.609375 C 1594.800781 1262.648438 1573.800781 1148.238281 1532.050781 919.699219 L 1531.851562 918.660156 "/>
</svg>
